<svg width="389" height="246" viewBox="0 0 389 246" fill="none" xmlns="http://www.w3.org/2000/svg">
<path fill-rule="evenodd" clip-rule="evenodd" d="M192.377 0.247575C221.926 -0.57104 249.862 2.49259 276.237 15.5523C319.686 37.0656 388.592 49.9601 388.998 97.6032C389.404 145.153 319.364 156.638 277.649 181.035C250.532 196.894 223.015 205.058 192.377 212.597C143.731 224.567 92.4303 262.971 49.8045 237.1C5.60899 210.276 -11.3658 146.534 2.91253 97.6032C15.8271 53.3459 71.4884 41.4708 113.135 20.0708C138.228 7.17717 164.046 1.03246 192.377 0.247575Z" fill="#A1D9D6"/>
<path fill-rule="evenodd" clip-rule="evenodd" d="M313.489 245.835C303.745 246.105 294.533 245.095 285.835 240.788C271.508 233.694 248.786 229.442 248.652 213.731C248.518 198.052 271.614 194.265 285.37 186.22C294.312 180.99 303.386 178.298 313.489 175.812C329.53 171.865 346.447 159.201 360.503 167.732C375.076 176.577 380.674 197.596 375.965 213.732C371.707 228.326 353.352 232.241 339.619 239.298C331.345 243.55 322.831 245.576 313.489 245.835Z" fill="#A1D9D6"/>
</svg>
