<svg width="28" height="29" viewBox="0 0 28 29" fill="none" xmlns="http://www.w3.org/2000/svg">
<path fill-rule="evenodd" clip-rule="evenodd" d="M20 6.38464V5.38464C20 4.83236 19.5523 4.38464 19 4.38464C18.4477 4.38464 18 4.83236 18 5.38464V6.38464H10V5.38464C10 4.83236 9.55228 4.38464 9 4.38464C8.44772 4.38464 8 4.83236 8 5.38464V6.38464H7C5.89 6.38464 5.01 7.28464 5.01 8.38464L5 22.3846C5 23.4846 5.89 24.3846 7 24.3846H21C22.1 24.3846 23 23.4846 23 22.3846V8.38464C23 7.28464 22.1 6.38464 21 6.38464H20ZM7 22.3846V11.3846H21V22.3846H7ZM9 14.3846C9 13.8324 9.44772 13.3846 10 13.3846H13C13.5523 13.3846 14 13.8324 14 14.3846V17.3846C14 17.9369 13.5523 18.3846 13 18.3846H10C9.44772 18.3846 9 17.9369 9 17.3846V14.3846Z" fill="black"/>
<mask id="mask0_529_270" style="mask-type:luminance" maskUnits="userSpaceOnUse" x="5" y="4" width="18" height="21">
<path fill-rule="evenodd" clip-rule="evenodd" d="M20 6.38464V5.38464C20 4.83236 19.5523 4.38464 19 4.38464C18.4477 4.38464 18 4.83236 18 5.38464V6.38464H10V5.38464C10 4.83236 9.55228 4.38464 9 4.38464C8.44772 4.38464 8 4.83236 8 5.38464V6.38464H7C5.89 6.38464 5.01 7.28464 5.01 8.38464L5 22.3846C5 23.4846 5.89 24.3846 7 24.3846H21C22.1 24.3846 23 23.4846 23 22.3846V8.38464C23 7.28464 22.1 6.38464 21 6.38464H20ZM7 22.3846V11.3846H21V22.3846H7ZM9 14.3846C9 13.8324 9.44772 13.3846 10 13.3846H13C13.5523 13.3846 14 13.8324 14 14.3846V17.3846C14 17.9369 13.5523 18.3846 13 18.3846H10C9.44772 18.3846 9 17.9369 9 17.3846V14.3846Z" fill="white"/>
</mask>
<g mask="url(#mask0_529_270)">
<rect x="2" y="2.38464" width="24" height="24" fill="black"/>
</g>
</svg>
