<svg width="22" height="22" viewBox="0 0 22 22" fill="none" xmlns="http://www.w3.org/2000/svg">
<path fill-rule="evenodd" clip-rule="evenodd" d="M14.2925 3.42261C15.5765 3.42261 16.1537 3.53807 16.6374 3.7568L16.7877 3.82929L16.8619 3.86809C17.4054 4.15877 17.832 4.58533 18.1227 5.12886L18.1985 5.2777C18.416 5.72818 18.5414 6.23365 18.5643 7.31554L18.5681 7.69823V13.8222L18.5643 14.2049C18.5427 15.2266 18.4296 15.7343 18.2339 16.167L18.1614 16.3174L18.1227 16.3915C17.832 16.9351 17.4054 17.3616 16.8619 17.6523L16.713 17.7282C16.2626 17.9457 15.7571 18.0711 14.6752 18.094L14.2925 18.0978H8.16857L7.78588 18.094C6.7641 18.0723 6.25646 17.9593 5.82371 17.7636L5.67337 17.6911L5.59919 17.6523C5.05567 17.3616 4.6291 16.9351 4.33842 16.3915L4.26253 16.2427C4.03296 15.7672 3.90602 15.2304 3.8939 14.0191L3.89294 7.69823C3.89294 6.41424 4.0084 5.83704 4.22714 5.35338L4.29963 5.20303L4.33842 5.12886C4.6291 4.58533 5.05567 4.15877 5.59919 3.86809L5.74803 3.79219C6.22354 3.56262 6.76033 3.43569 7.97162 3.42357L14.2925 3.42261ZM14.4605 5.09079L8.16857 5.09024L7.84464 5.09246L7.56632 5.09937L7.32819 5.11135C7.25491 5.11623 7.18742 5.12201 7.12483 5.12877L6.95082 5.15201C6.76282 5.18265 6.62368 5.22595 6.49466 5.28457L6.38565 5.33863C6.13274 5.47389 5.94422 5.6624 5.80897 5.91531L5.7549 6.02432C5.69628 6.15334 5.65299 6.29248 5.62234 6.48048L5.59911 6.65449C5.59235 6.71708 5.58657 6.78457 5.58169 6.85785L5.56971 7.09598L5.5628 7.3743C5.56205 7.42434 5.56149 7.47627 5.56113 7.53023V13.9902L5.56606 14.3069C5.58254 14.9391 5.6377 15.2352 5.75196 15.4896L5.80897 15.6051C5.94422 15.858 6.13274 16.0465 6.38565 16.1818L6.49466 16.2358C6.62368 16.2945 6.76282 16.3377 6.95082 16.3684L7.12483 16.3916C7.18742 16.3984 7.25491 16.4042 7.32819 16.4091L7.56632 16.421L7.84464 16.4279L8.16857 16.4302L14.4605 16.4296L14.761 16.4251L15.0185 16.4157C15.1375 16.4097 15.2424 16.4018 15.3362 16.3916L15.5103 16.3684C15.6983 16.3377 15.8374 16.2945 15.9664 16.2358L16.0754 16.1818C16.3283 16.0465 16.5169 15.858 16.6521 15.6051L16.7062 15.4961C16.7648 15.3671 16.8081 15.2279 16.8387 15.0399L16.862 14.8659C16.8687 14.8033 16.8745 14.7358 16.8794 14.6626L16.8914 14.4244L16.8983 14.1461L16.9005 13.8222L16.9 7.53023L16.8954 7.22978L16.886 6.97223C16.8801 6.85328 16.8721 6.74838 16.862 6.65449L16.8387 6.48048C16.8081 6.29248 16.7648 6.15334 16.7062 6.02432L16.6521 5.91531C16.5169 5.6624 16.3283 5.47389 16.0754 5.33863L15.9664 5.28457C15.8374 5.22595 15.6983 5.18265 15.5103 5.15201L15.3362 5.12877C15.2737 5.12201 15.2062 5.11623 15.1329 5.11135L14.8948 5.09937L14.6164 5.09246C14.5664 5.09171 14.5145 5.09116 14.4605 5.09079ZM11.9768 7.79891C11.9458 8.19862 11.9781 8.60268 11.9681 9.00484C11.9594 9.36406 12.0816 9.46541 12.4072 9.27222C12.8191 9.02793 13.2343 8.78881 13.653 8.55622C14.1305 8.29101 14.55 8.38204 14.7704 8.78746C14.9821 9.17711 14.8489 9.5665 14.3984 9.83578C13.9742 10.0898 13.5443 10.3339 13.1147 10.579C12.843 10.7341 12.8324 10.8825 13.1115 11.0417C13.5411 11.2865 13.971 11.5311 14.3954 11.7846C14.847 12.0542 14.9823 12.443 14.7726 12.8321C14.5557 13.2337 14.1307 13.3256 13.6549 13.0623C13.2631 12.8457 12.8789 12.6142 12.4887 12.3941C12.0564 12.1506 11.9816 12.1911 11.9762 12.6712L11.9663 13.275C11.9646 13.4762 11.967 13.6772 11.9811 13.8772C12.0126 14.3185 11.8757 14.6581 11.5056 14.9016H10.948C10.5784 14.6342 10.4461 14.2763 10.4814 13.822C10.5127 13.4228 10.4798 13.0188 10.4901 12.6172C10.4994 12.258 10.3793 12.1569 10.0532 12.3509C9.64208 12.596 9.22688 12.8346 8.80842 13.0666C8.33018 13.3315 7.91281 13.2411 7.69108 12.8356C7.47859 12.4473 7.61092 12.0574 8.0609 11.7884C8.47175 11.543 8.88749 11.3058 9.30541 11.0724C9.61735 10.8982 9.63909 10.7376 9.31193 10.555C8.89401 10.3216 8.47854 10.0839 8.06769 9.83877C7.61391 9.56785 7.47913 9.18363 7.68809 8.79479C7.90683 8.38774 8.32556 8.29454 8.80299 8.55866C9.19454 8.77523 9.57822 9.00701 9.96788 9.22684C10.4149 9.479 10.4798 9.43824 10.4828 8.90946C10.485 8.53883 10.5075 8.16602 10.4771 7.79755C10.4325 7.25573 10.6765 6.92259 10.9801 6.80548C11.4423 6.62695 12.0431 6.94895 11.9768 7.79891Z" fill="black"/>
</svg>
