<svg width="29" height="25" viewBox="0 0 29 25" fill="none" xmlns="http://www.w3.org/2000/svg">
<g clip-path="url(#clip0_529_1202)">
<path fill-rule="evenodd" clip-rule="evenodd" d="M20.2746 10.5C20.6642 10.1105 20.6642 9.47883 20.2746 9.08926C19.8853 8.69999 19.2543 8.69964 18.8646 9.08849L14.98 12.9646L11.0954 9.08849C10.7057 8.69964 10.0746 8.69999 9.68536 9.08926C9.29579 9.47883 9.29579 10.1105 9.68536 10.5L14.98 15.7946L20.2746 10.5Z" fill="black"/>
<mask id="mask0_529_1202" style="mask-type:luminance" maskUnits="userSpaceOnUse" x="9" y="8" width="12" height="8">
<path fill-rule="evenodd" clip-rule="evenodd" d="M20.2746 10.5C20.6642 10.1105 20.6642 9.47883 20.2746 9.08926C19.8853 8.69999 19.2543 8.69964 18.8646 9.08849L14.98 12.9646L11.0954 9.08849C10.7057 8.69964 10.0746 8.69999 9.68536 9.08926C9.29579 9.47883 9.29579 10.1105 9.68536 10.5L14.98 15.7946L20.2746 10.5Z" fill="white"/>
</mask>
<g mask="url(#mask0_529_1202)">
<rect x="26.98" y="0.384644" width="24" height="24" transform="rotate(90 26.98 0.384644)" fill="black"/>
</g>
</g>
<defs>
<clipPath id="clip0_529_1202">
<rect width="28.04" height="24" fill="white" transform="translate(0.959961 0.384644)"/>
</clipPath>
</defs>
</svg>
