<svg width="24" height="25" viewBox="0 0 24 25" fill="none" xmlns="http://www.w3.org/2000/svg">
<path fill-rule="evenodd" clip-rule="evenodd" d="M16.6156 9.74309C17.6186 9.74309 17.9823 9.84752 18.349 10.0436C18.7156 10.2397 19.0034 10.5275 19.1995 10.8941C19.3956 11.2608 19.5 11.6245 19.5 12.6275V17.605C19.5 18.6079 19.3956 18.9716 19.1995 19.3383C19.0034 19.705 18.7156 19.9927 18.349 20.1888C17.9823 20.3849 17.6186 20.4894 16.6156 20.4894H7.38437C6.38141 20.4894 6.01772 20.3849 5.65105 20.1888C5.28438 19.9927 4.99662 19.705 4.80052 19.3383C4.60443 18.9716 4.5 18.6079 4.5 17.605V12.6275C4.5 11.6245 4.60443 11.2608 4.80052 10.8941C4.99662 10.5275 5.28438 10.2397 5.65105 10.0436C6.01772 9.84752 6.38141 9.74309 7.38437 9.74309H16.6156ZM16.125 11.3894H7.875C7.25368 11.3894 6.75 11.8931 6.75 12.5144V14.7644C6.75 15.3857 7.25368 15.8894 7.875 15.8894H16.125C16.7463 15.8894 17.25 15.3857 17.25 14.7644V12.5144C17.25 11.8931 16.7463 11.3894 16.125 11.3894ZM12 12.2046C12.8284 12.2046 13.5 12.8762 13.5 13.7046C13.5 14.533 12.8284 15.2046 12 15.2046C11.1716 15.2046 10.5 14.533 10.5 13.7046C10.5 12.8762 11.1716 12.2046 12 12.2046ZM17.0037 7.83582C17.2744 7.84183 17.4907 8.06298 17.4907 8.33374C17.4907 8.6045 17.2744 8.82565 17.0037 8.83166H16.0079V9.72927H15.0111V8.83166H14.0152C13.8347 8.83566 13.6662 8.74164 13.5747 8.58594C13.4833 8.43024 13.4833 8.23724 13.5747 8.08154C13.6662 7.92584 13.8347 7.83182 14.0152 7.83582H17.0037ZM9.51862 7.83582C9.78931 7.84183 10.0056 8.06298 10.0056 8.33374C10.0056 8.6045 9.78931 8.82565 9.51862 8.83166H8.52181V9.72927H7.52598V8.83166H6.53014C6.34962 8.83566 6.18107 8.74164 6.08964 8.58594C5.9982 8.43024 5.9982 8.23724 6.08964 8.08154C6.18107 7.92584 6.34962 7.83182 6.53014 7.83582H9.51862ZM10.8405 3.95459C11.6939 3.95459 12.3984 4.6562 12.3984 5.50961V9.72927H11.4026V5.50961C11.4026 5.19067 11.1594 4.95043 10.8405 4.95043C10.5215 4.95043 10.2813 5.19067 10.2813 5.50961V6.16021C10.2853 6.34073 10.1913 6.50929 10.0356 6.60072C9.87986 6.69216 9.68686 6.69216 9.53115 6.60072C9.37545 6.50929 9.28143 6.34073 9.28544 6.16021V5.50961C9.28544 4.6562 9.98705 3.95459 10.8405 3.95459Z" fill="black"/>
</svg>
