<svg width="28" height="29" viewBox="0 0 28 29" fill="none" xmlns="http://www.w3.org/2000/svg">
<path fill-rule="evenodd" clip-rule="evenodd" d="M13.2795 5.38464C17.3877 5.38464 20.717 8.78314 20.717 12.9753C20.717 18.3679 14.2079 23.519 13.3688 24.1613L13.3023 24.2111L13.2795 24.2286L13.2568 24.2111L13.1903 24.1613C12.3503 23.519 5.84204 18.3688 5.84204 12.9753C5.84204 8.78314 9.17142 5.38464 13.2795 5.38464ZM13.2795 8.54164C12.1836 8.54164 11.1326 8.977 10.3576 9.75193C9.58271 10.5269 9.14735 11.5779 9.14735 12.6738C9.14735 13.7698 9.58271 14.8208 10.3576 15.5957C11.1326 16.3707 12.1836 16.806 13.2795 16.806C14.3755 16.806 15.4265 16.3707 16.2014 15.5957C16.9764 14.8208 17.4117 13.7698 17.4117 12.6738C17.4117 11.5779 16.9764 10.5269 16.2014 9.75193C15.4265 8.977 14.3755 8.54164 13.2795 8.54164Z" fill="black"/>
</svg>
