<svg width="52" height="46" viewBox="0 0 52 46" fill="none" xmlns="http://www.w3.org/2000/svg">
<g clip-path="url(#clip0_529_1217)">
<path d="M24.6313 0.471231C24.9192 0.447907 25.2167 0.457105 25.5057 0.454224L27.4797 0.506241C29.7725 0.668345 32.0482 1.11379 34.2177 1.88015C35.2141 2.23216 36.1891 2.66154 37.1389 3.12384C37.8476 3.4688 38.5236 3.87007 39.1938 4.28383C44.2597 7.41114 48.0444 12.2275 49.9734 17.8455C50.2248 18.5778 50.4116 19.3316 50.5862 20.0853C51.874 25.6441 51.251 31.735 48.7375 36.8742L27.1041 36.8667L2.89756 36.8387C1.44209 33.7902 0.659304 30.5327 0.427838 27.1692C0.32591 25.688 0.407899 24.1519 0.596661 22.6814C0.756376 21.4373 0.981625 20.1972 1.31969 18.9879C2.30246 15.4723 4.11542 12.0881 6.51968 9.34074C7.82402 7.85018 9.26447 6.48621 10.8615 5.31129C14.1244 2.91086 17.9685 1.34843 21.9681 0.732049C22.8505 0.596051 23.7411 0.530455 24.6313 0.471231Z" fill="black"/>
<path d="M13.3134 29.5552L13.8982 29.5559L13.8858 30.2329L13.3125 30.25L13.3134 29.5552Z" fill="white"/>
<path d="M9.2428 23.2003C9.63781 23.2258 10.0089 23.2933 10.3941 23.3837C10.3607 23.5157 10.1687 23.7227 10.0846 23.8404L9.81607 24.1964C9.58704 23.901 9.39058 23.5425 9.2428 23.2003Z" fill="white"/>
<path d="M42.4914 23.1187C42.5476 23.1101 42.593 23.102 42.6493 23.113C42.5194 23.5374 42.2126 24.0057 41.9753 24.3816L41.7273 24.0763L41.1819 23.433C41.2677 23.3766 41.4001 23.3544 41.4997 23.3261C41.8294 23.2322 42.151 23.1639 42.4914 23.1187Z" fill="white"/>
<path d="M19.0075 23.3685L20.3157 23.3586L20.3161 24.527L17.2594 24.5236L15.8547 24.519C16.1304 24.238 16.4864 24.0515 16.8467 23.9013C17.5207 23.6204 18.2812 23.4432 19.0075 23.3685Z" fill="white"/>
<path d="M18.4432 25.0996L20.3154 25.0978L20.3237 27.837L18.454 27.8378L18.4432 25.0996Z" fill="white"/>
<path d="M22.5659 25.1038L25.8984 25.1079L25.9131 27.6411L22.5565 27.6549L22.5659 25.1038Z" fill="white"/>
<path d="M27.4952 25.1098L30.8521 25.1C30.9037 25.1862 30.8644 27.4041 30.8633 27.6488L27.4874 27.646L27.4952 25.1098Z" fill="white"/>
<path d="M15.5209 25.0911L17.8684 25.1005L17.8754 27.8333L16.2084 27.8329L13.8002 27.8372C14.2427 26.8337 14.7851 25.9089 15.5209 25.0911Z" fill="white"/>
<path d="M32.0106 31.7161C32.2199 31.6943 32.4506 31.6901 32.6546 31.7455L32.7042 31.7597C32.9111 31.8167 33.1063 31.8986 33.2872 32.0152C33.6992 32.2809 34.0009 32.7076 34.0994 33.1899C34.2021 33.6937 34.1009 34.1634 33.8133 34.5867C33.4943 35.0563 33.0638 35.336 32.5087 35.4396C32.0587 35.4914 31.6759 35.3923 31.2928 35.1522C30.8474 34.8731 30.5294 34.4629 30.4199 33.9433C30.321 33.4743 30.416 32.9583 30.6844 32.5607C30.9965 32.0984 31.4676 31.817 32.0106 31.7161Z" fill="white"/>
<path d="M32.0374 32.1304C32.3568 32.0949 32.6493 32.119 32.9347 32.2765C33.2909 32.473 33.5688 32.8158 33.6749 33.21C33.7697 33.5622 33.7193 33.9532 33.5363 34.2667C33.2974 34.6758 32.9403 34.8964 32.4903 35.0188C32.141 35.0643 31.8113 35.0076 31.5082 34.8243C31.1791 34.6253 30.9185 34.2619 30.8372 33.8862C30.7547 33.5053 30.8317 33.0798 31.0477 32.756C31.2879 32.3961 31.6236 32.2146 32.0374 32.1304Z" fill="black"/>
<path d="M32.1172 32.6806C32.2768 32.6677 32.4045 32.6637 32.5567 32.7246C32.7916 32.8185 33.0175 33.0558 33.1075 33.2912C33.1884 33.503 33.1619 33.7454 33.0591 33.9441C32.9103 34.2317 32.6824 34.3789 32.3804 34.4699C32.21 34.4792 32.0597 34.4665 31.902 34.3954C31.6791 34.2951 31.4826 34.086 31.4051 33.8535C31.3311 33.631 31.341 33.3789 31.4507 33.1693C31.5958 32.8921 31.8293 32.7628 32.1172 32.6806Z" fill="white"/>
<path d="M32.1487 33.121C32.2236 33.12 32.2992 33.1247 32.3724 33.1415C32.4831 33.167 32.5969 33.2514 32.6548 33.3488C32.728 33.472 32.7373 33.5905 32.6937 33.725C32.6492 33.8622 32.5168 33.9377 32.3994 34.0032C32.314 34.0133 32.2117 34.0211 32.1287 33.9942C32.0166 33.9579 31.9049 33.863 31.8512 33.7579C31.8001 33.6582 31.7934 33.5051 31.834 33.4009C31.8899 33.257 32.0147 33.1805 32.1487 33.121Z" fill="black"/>
<path d="M18.8056 31.5816C19.2234 31.5512 19.5855 31.6362 19.9328 31.8729C20.3523 32.1588 20.6839 32.6253 20.7774 33.1287C20.8717 33.6363 20.7199 34.1449 20.4225 34.5596C20.0761 35.0428 19.6704 35.242 19.093 35.3339C18.9101 35.3411 18.7079 35.3466 18.5286 35.3059C17.969 35.1785 17.5377 34.8592 17.2442 34.3644C17.0178 33.9826 16.9181 33.4917 17.0346 33.0565C17.1175 32.7465 17.2348 32.4872 17.4415 32.2388C17.7957 31.813 18.2648 31.6285 18.8056 31.5816Z" fill="white"/>
<path d="M18.7779 31.9947C19.1091 31.9755 19.4384 32.0393 19.7162 32.2296C20.0424 32.4529 20.3045 32.8271 20.3686 33.2186C20.4347 33.6222 20.3337 33.9944 20.0967 34.3244C19.8305 34.6951 19.4853 34.8384 19.0491 34.9094C18.7039 34.9268 18.3428 34.8841 18.0512 34.6818C17.7189 34.4512 17.5033 34.0896 17.4413 33.6914C17.3803 33.2998 17.482 32.8859 17.7196 32.5683C17.9965 32.1983 18.3275 32.0547 18.7779 31.9947Z" fill="black"/>
<path d="M18.819 32.544C19.0164 32.5375 19.1764 32.5457 19.3518 32.6516C19.5623 32.7787 19.7513 33.0025 19.8068 33.2458C19.8608 33.4821 19.8058 33.7613 19.6773 33.9633C19.522 34.2075 19.3166 34.3026 19.0466 34.3641C18.8289 34.3679 18.6455 34.3605 18.4484 34.2506C18.2433 34.1362 18.0843 33.9363 18.0287 33.7073C17.9619 33.4321 18.0017 33.1618 18.1617 32.9256C18.3216 32.6898 18.5523 32.5983 18.819 32.544Z" fill="white"/>
<path d="M18.7659 33.01C18.8628 33.001 18.9587 32.9898 19.0522 33.0236C19.1773 33.0688 19.2991 33.1857 19.3503 33.3084C19.3906 33.4053 19.3896 33.5517 19.3489 33.6485C19.2884 33.7925 19.16 33.87 19.0245 33.9317C18.9535 33.9399 18.8779 33.939 18.808 33.9223C18.6846 33.8929 18.5552 33.7928 18.4974 33.6804C18.4382 33.5652 18.4217 33.4451 18.4612 33.3212C18.5135 33.1572 18.6213 33.0896 18.7659 33.01Z" fill="black"/>
<path d="M29.3315 33.8523L29.826 33.8407C29.8923 33.979 29.9093 34.1579 29.9501 34.3073C30.1409 35.0061 30.6092 35.4374 31.2192 35.7846L21.6561 35.7702L19.6958 35.7558C19.8721 35.6873 20.0572 35.6202 20.2181 35.5193C20.7975 35.156 21.179 34.5147 21.335 33.8637L29.3315 33.8523Z" fill="white"/>
<path d="M14.7469 28.4038L20.3104 28.4192L20.3124 28.8728L16.7741 28.8667C16.5664 28.8662 15.6026 28.8188 15.4756 28.9166C15.4028 28.9727 15.368 29.0378 15.3654 29.1298C15.363 29.215 15.3864 29.3099 15.4464 29.3729C15.5087 29.4383 15.5575 29.4499 15.6471 29.4586C16.1235 29.5053 16.6464 29.4623 17.1269 29.4614L20.3163 29.4467L20.3143 31.142L20.307 31.4029C20.2503 31.3982 20.2715 31.4064 20.2226 31.3765C19.9121 31.1868 19.5698 31.0557 19.2078 31.0056C18.5817 30.9188 17.9083 31.0847 17.4049 31.4699C16.7976 31.9347 16.5241 32.5318 16.4249 33.2738L14.2027 33.289C14.0634 33.1018 13.9666 32.8431 13.8123 32.6759C13.689 32.5424 13.4875 32.5694 13.3219 32.5691L13.3147 30.8283C13.6063 30.8288 14.056 30.9023 14.2798 30.6818C14.4228 30.541 14.4449 30.3535 14.448 30.1642C14.4532 29.8447 14.5255 29.3687 14.2741 29.125C14.0483 28.906 13.6463 28.9775 13.3544 28.9781L13.5157 28.4069L14.7469 28.4038Z" fill="white"/>
<path d="M21.2006 29.427L37.8897 29.418L37.8924 29.7645L33.4852 29.7545L25.5341 29.748L22.924 29.7555L22.3455 29.7617C22.2689 29.7634 22.154 29.7552 22.0835 29.7821C22.0526 29.7938 22.0282 29.8063 22.0041 29.83C21.9563 29.8769 21.937 29.9466 21.9353 30.0118C21.9327 30.1076 21.9626 30.183 22.0321 30.2497C22.0799 30.2955 22.1294 30.3144 22.1954 30.3202C22.7323 30.3672 23.3182 30.3236 23.8601 30.3233L27.2976 30.3246L37.893 30.3234L37.905 31.8175C37.9068 32.055 37.9347 32.3311 37.8932 32.5638C37.8632 32.7322 37.7868 32.8866 37.666 33.0079C37.554 33.1203 37.4111 33.2057 37.2554 33.2387C37.0097 33.2907 36.6972 33.2567 36.4441 33.2565L34.7115 33.252C34.647 32.8553 34.5064 32.501 34.2716 32.1728C33.8873 31.6357 33.2888 31.26 32.6349 31.1653C31.9806 31.0706 31.3117 31.2302 30.7816 31.6243C30.2329 32.0322 29.9122 32.5937 29.8141 33.2681L21.3785 33.2841C21.3541 32.9979 21.2509 32.6566 21.1206 32.4002C21.0537 32.2685 20.9389 32.1335 20.9135 31.9868C20.8691 31.7312 20.8988 31.4237 20.8984 31.1626L20.8977 29.4346L21.2006 29.427Z" fill="white"/>
<path d="M20.892 23.3599L34.1477 23.3707L36.0378 23.3687C36.3706 23.3683 36.8925 23.3028 37.1981 23.4226C37.4762 23.5316 37.6992 23.7482 37.8097 24.0279C37.858 24.1503 37.9172 24.4058 37.8614 24.5322C37.5304 24.5902 37.1051 24.5399 36.7652 24.5381L34.3584 24.5319L24.3713 24.5341L22.7853 24.5327C22.624 24.5323 22.3271 24.494 22.1814 24.5452C22.1055 24.572 22.0703 24.6349 22.0302 24.6985C22.001 25.0289 21.95 27.9279 22.0538 28.0679C22.1086 28.142 22.1856 28.1927 22.2782 28.2041C22.4299 28.2228 22.6112 28.2039 22.7662 28.2027L23.7662 28.1998L25.4249 28.2053C25.7067 28.2062 26.0086 28.2295 26.2881 28.2011C26.3381 28.196 26.3729 28.1794 26.409 28.1434C26.4571 28.0954 26.4782 28.0624 26.4907 27.9952C26.5308 27.7794 26.5025 27.5085 26.5009 27.2878L26.4882 25.9153L26.4833 25.1346C26.5545 25.0937 26.8195 25.1197 26.9122 25.1199C26.9138 25.4972 26.8697 27.9229 26.9802 28.0706C27.0393 28.1496 27.1297 28.1995 27.2278 28.2081C27.4125 28.2244 27.61 28.2083 27.7962 28.2083L28.925 28.209C29.6578 28.2103 30.4181 28.2566 31.1479 28.2115C31.2191 28.2071 31.2901 28.2008 31.3457 28.1512C31.3868 28.1146 31.4186 28.0721 31.4295 28.017C31.4751 27.7875 31.4342 27.4631 31.4342 27.2247L31.4332 25.1058L37.8997 25.1003L37.8935 28.8641L20.8943 28.8839L20.892 23.3599Z" fill="white"/>
<path d="M25.8567 12.7242C25.9716 12.7894 26.1005 12.9952 26.1863 13.1025L27.0707 14.2271L30.855 19.0016L32.5718 21.2107C32.7916 21.4866 32.9958 21.791 33.2418 22.0437C33.3145 22.07 33.3526 22.0801 33.43 22.0658C33.5677 22.0405 33.6546 21.8828 33.7292 21.7733C33.5432 21.476 33.3116 21.2048 33.0978 20.927C32.8363 20.5871 32.5841 20.2352 32.2913 19.9215L34.9585 16.8558L36.4042 18.5812L40.7622 23.8429C40.8843 23.9931 41.431 24.5716 41.4617 24.707C40.9508 25.5205 40.2918 26.2443 39.5658 26.8715L42.5205 26.1604L48.6963 33.9103C48.7163 33.9508 48.7048 33.9577 48.6915 33.9995C48.4961 34.6103 48.2336 35.2147 47.9703 35.799L33.3784 35.7831C33.8011 35.52 34.1823 35.1843 34.4199 34.7398C34.5631 34.4718 34.6285 34.1828 34.6886 33.8876C34.6903 33.8791 34.6865 33.867 34.6937 33.8622C34.7129 33.8494 34.9058 33.8622 34.9491 33.8622L36.4301 33.8615C36.7218 33.8611 37.056 33.8943 37.3395 33.8244C37.5987 33.7605 37.8629 33.6135 38.0504 33.423C38.2456 33.2248 38.3841 32.9659 38.4406 32.6932C38.4869 32.4694 38.4728 32.2264 38.4717 31.9984L38.4697 31.0462L38.473 27.7037L38.468 25.2863C38.4656 24.8838 38.5134 24.4052 38.4184 24.0154C38.3448 23.7133 38.1882 23.4444 37.9672 23.2269C37.7346 22.9979 37.4331 22.8408 37.1085 22.7956C36.6848 22.7366 36.2095 22.775 35.7809 22.7753L33.3642 22.7746L24.5045 22.7803L21.3768 22.7795C20.6216 22.7794 19.8397 22.7361 19.0876 22.7857C18.1665 22.8465 17.2578 23.0696 16.4174 23.4513C15.9634 23.6575 15.277 24.1107 15.1092 24.6017C15.0191 24.8655 14.724 25.1271 14.5545 25.3558C14.357 25.6221 14.166 25.8972 13.9959 26.1819C13.689 26.6956 13.4312 27.2458 13.1745 27.786C13.0403 28.0684 12.8643 28.3832 12.7979 28.6892C12.6823 29.2209 12.7349 29.825 12.7352 30.368L12.7294 32.4826C12.5368 32.4806 12.2044 32.4369 12.0545 32.5802C11.9741 32.6569 11.9437 32.7907 11.9438 32.898C11.9438 33.0049 11.9676 33.1408 12.0506 33.216C12.0847 33.247 12.1606 33.3154 12.2035 33.3296C12.3062 33.3638 12.49 33.3418 12.5999 33.3413L13.5208 33.3413C13.6814 33.4433 13.838 33.7008 13.9774 33.8471C14.2507 33.8861 14.5539 33.8628 14.8309 33.8635L16.4635 33.8661L16.5982 34.3151C16.8954 35.0447 17.3755 35.4651 18.0893 35.7631C17.9618 35.7885 17.8184 35.7764 17.688 35.7763L16.9599 35.7733L14.4044 35.7681L3.65779 35.7615L2.94653 33.9682C2.99755 33.7739 4.44997 32.0505 4.67547 31.7719L7.04975 28.812L9.25794 25.9902L12.0444 27.0763C12.0304 27.0013 11.887 26.8546 11.8376 26.79L10.9305 25.6341C10.6858 25.3175 10.4403 24.9935 10.2249 24.6563L11.0767 23.5905L11.5209 23.7128L11.2708 23.3377C11.4404 23.0717 11.6643 22.8246 11.8615 22.5773L13.0814 21.0666L16.5514 16.8988C16.6235 16.9311 16.6823 17.0123 16.7363 17.0693L17.1796 17.5668L19.232 20.0063C19.0008 20.3532 18.7401 20.6866 18.476 21.009C18.3304 21.1867 18.1384 21.3741 18.0256 21.5735C17.9744 21.6639 17.9952 21.7308 18.0238 21.8225C18.1139 21.9323 18.1799 21.9788 18.3238 21.9953C18.4246 21.9644 18.4784 21.9297 18.5515 21.8534C18.7383 21.6583 18.9007 21.4142 19.0679 21.2009L20.1013 19.8941L24.2763 14.6467L25.3566 13.3048C25.5138 13.1125 25.6655 12.8822 25.8567 12.7242Z" fill="white"/>
<path d="M25.138 1.60566C27.2402 1.50438 29.4666 1.76559 31.5051 2.27345L33.8085 2.96719C34.9982 3.35761 36.1448 3.89471 37.2454 4.48817C41.7051 6.89271 45.2995 10.5844 47.5826 15.1093C50.3761 20.6455 50.8802 27.3233 48.9409 33.2181L48.9142 33.2127L45.9876 29.5273L44.0622 27.1414C43.7591 26.7567 43.4188 26.3717 43.1641 25.9537C43.6189 26.0024 44.0749 26.1854 44.5087 26.3271L46.6875 27.021C45.4996 25.8985 44.3505 24.6355 43.7633 23.0838L46.0433 23.633C44.9863 22.5758 44.1404 21.3004 43.623 19.892C44.1359 19.8983 44.6524 20.0162 45.1619 20.0758C44.7011 19.4498 44.3869 18.7648 44.1102 18.042C43.7295 17.0478 43.4537 16.0231 43.2924 14.9707C43.0218 16.0469 42.749 17.0844 42.3478 18.1221C42.0971 18.7707 41.781 19.4697 41.3155 19.9914L41.2897 20.0199L42.8432 19.9755L42.172 21.2554C41.815 21.877 41.3799 22.4942 40.902 23.0295L34.9767 15.9393L31.9296 19.4055L26.0474 11.9496C26.0033 11.8848 25.9756 11.8402 25.9013 11.8064C25.8416 11.8135 25.7911 11.8198 25.7453 11.8628C25.6197 11.981 25.5164 12.1563 25.4054 12.2924L24.2785 13.7054L21.5883 17.0832L19.6308 19.5346L16.7893 16.1981C16.7211 16.1219 16.6612 16.072 16.5542 16.0653C16.4689 16.0936 16.4189 16.1239 16.3548 16.1872C16.1947 16.3455 16.0563 16.5445 15.9125 16.7183L15.1104 17.6679L12.5097 20.8236L10.7745 22.9395C9.9189 22.0809 9.36217 20.9518 9.07302 19.7797L10.639 20.1436C9.50199 18.7415 9.05471 16.9512 8.69542 15.2176C8.63464 15.3216 8.61113 15.4609 8.57762 15.578L8.38293 16.2611C7.9961 17.6432 7.60098 19.0466 6.60056 20.1234L8.19322 19.7983C7.83305 20.8579 7.26769 21.9742 6.45936 22.7634C6.15118 23.0644 5.80124 23.3154 5.46546 23.5838C5.86756 23.4891 6.26921 23.4314 6.67655 23.3683C7.14784 23.2952 7.60717 23.2275 8.08493 23.211C7.29667 24.6527 6.21086 25.8548 5.01144 26.9627C5.18339 26.9538 5.38798 26.8778 5.55661 26.835C6.58126 26.5751 7.5715 26.2013 8.5748 25.8721C8.55173 25.9755 8.09765 26.4948 8.00235 26.6185L4.68147 30.8109L2.70283 33.2284C1.96278 30.9615 1.62589 28.6795 1.53948 26.3042C1.50943 25.4781 1.55389 24.6506 1.62012 23.8273C1.94327 19.8109 3.30041 15.862 5.53106 12.5029C6.31528 11.322 7.22461 10.2046 8.19267 9.17087C10.98 6.19433 14.6502 3.89344 18.5428 2.68579C20.6827 2.02192 22.9011 1.67588 25.138 1.60566Z" fill="white"/>
<path d="M28.7599 4.20667L28.8604 4.21596C28.9227 4.2643 28.9756 4.30511 28.9968 4.38642C29.0192 4.47242 28.9959 4.53885 28.9454 4.60583C28.7992 4.79979 28.5891 4.9806 28.4161 5.15272C28.3381 5.23031 28.2684 5.33004 28.1552 5.34641C28.048 5.32827 27.9958 5.30592 27.9175 5.22987C27.8827 5.14641 27.8817 5.11179 27.8959 5.02247C28.032 4.8186 28.2472 4.6483 28.4203 4.47408C28.5217 4.3722 28.6165 4.24295 28.7599 4.20667Z" fill="black"/>
<path d="M23.5018 4.20665C23.5786 4.19155 23.6597 4.19652 23.7251 4.24536C23.8235 4.31898 23.9145 4.42661 24.0025 4.51433C24.1611 4.6724 24.4584 4.89723 24.4903 5.11924C24.4648 5.22299 24.4301 5.26575 24.3549 5.34047L24.2598 5.35048C24.1863 5.35087 24.1416 5.32581 24.0902 5.27687L23.5461 4.7099C23.4989 4.65907 23.3899 4.55609 23.3642 4.49442C23.3569 4.4771 23.3536 4.41433 23.3553 4.40023C23.3664 4.30803 23.4332 4.25836 23.5018 4.20665Z" fill="black"/>
<path d="M24.1355 8.74194L24.2122 8.74498C24.2905 8.75356 24.3592 8.79769 24.4045 8.86141C24.4419 8.9139 24.4594 8.98796 24.4482 9.05134C24.4246 9.1848 23.7649 9.81283 23.6198 9.9193C23.5939 9.93224 23.5807 9.94076 23.5502 9.94623C23.4791 9.9589 23.3963 9.92212 23.3494 9.86924C23.2962 9.80929 23.2922 9.72245 23.312 9.64817C23.35 9.50625 23.9969 8.83857 24.1355 8.74194Z" fill="black"/>
<path d="M28.1011 8.74202L28.1966 8.72925C28.3183 8.76144 28.4073 8.88135 28.4909 8.97067C28.6663 9.15828 28.8735 9.35119 29.0247 9.55782C29.0898 9.64682 29.0901 9.71457 29.0748 9.82054C29.0162 9.89593 28.9933 9.92076 28.9018 9.94847C28.8007 9.93719 28.737 9.92209 28.664 9.84786L27.9892 9.17022C27.9337 9.1043 27.8998 9.03743 27.9195 8.94943C27.9423 8.84739 28.0168 8.79247 28.1011 8.74202Z" fill="black"/>
<path d="M26.0901 2.98987C26.2124 2.97953 26.2586 3.00102 26.3515 3.07284C26.4201 3.19628 26.4006 3.34385 26.4016 3.48195C26.4036 3.76983 26.428 4.08891 26.3857 4.37259C26.3329 4.45566 26.3087 4.48143 26.2191 4.52203L26.1841 4.52037C26.0645 4.50599 26.0057 4.44675 25.9373 4.35356C25.8748 4.07873 25.905 3.73947 25.9058 3.45552C25.9061 3.35115 25.8934 3.21951 25.9389 3.12267C25.9762 3.04319 26.0122 3.02302 26.0901 2.98987Z" fill="black"/>
<path d="M26.0859 9.62696C26.1438 9.61612 26.1995 9.62033 26.2581 9.62176C26.3087 9.65052 26.3527 9.67265 26.3846 9.72403C26.4876 9.89001 26.4306 10.4259 26.4288 10.64C26.4279 10.7424 26.4405 10.873 26.4089 10.971C26.3815 11.0559 26.3425 11.0757 26.2689 11.1203C26.2287 11.1267 26.1903 11.1294 26.1496 11.125C26.0881 11.1185 26.0256 11.0846 25.9881 11.0364C25.8771 10.8942 25.9262 10.3703 25.9258 10.1712C25.9256 10.0634 25.9108 9.93459 25.9339 9.83055C25.9583 9.72071 25.9915 9.68587 26.0859 9.62696Z" fill="black"/>
<path d="M28.8435 6.77847C28.9038 6.7689 28.8783 6.77083 28.9382 6.76962L29.7078 6.76613C29.8291 6.76608 29.9919 6.74777 30.1063 6.7851C30.1507 6.79959 30.1805 6.82957 30.213 6.86143C30.2477 6.93521 30.2668 7.00064 30.2445 7.08266C30.2217 7.16646 30.1468 7.20506 30.0788 7.24986L29.994 7.26026C29.7229 7.27741 29.4418 7.26546 29.1697 7.26618C29.0598 7.26645 28.8913 7.28587 28.7905 7.24859C28.7663 7.23963 28.7178 7.18487 28.6959 7.16563C28.6645 7.09013 28.6367 7.01226 28.6674 6.93057C28.7022 6.83776 28.7623 6.81801 28.8435 6.77847Z" fill="black"/>
<path d="M22.2242 6.77851C22.2459 6.77171 22.2558 6.76772 22.2807 6.76507C22.4973 6.74217 22.7348 6.75882 22.9527 6.75888C23.1104 6.75893 23.2919 6.74029 23.4453 6.76562C23.5023 6.77503 23.5413 6.80782 23.5836 6.84433C23.6292 6.93337 23.649 6.99515 23.6199 7.09465C23.596 7.17651 23.5473 7.21025 23.4768 7.24863C23.4127 7.26279 23.3545 7.27286 23.2885 7.2743L22.5102 7.279C22.4415 7.27878 22.283 7.28912 22.2234 7.26091C22.2025 7.25101 22.1567 7.2129 22.1403 7.19332C22.0809 7.12231 22.0716 7.03365 22.0855 6.94444C22.0982 6.86269 22.1607 6.81988 22.2242 6.77851Z" fill="black"/>
<path d="M16.6937 10.0653C16.8817 10.0544 17.0954 10.0705 17.2733 10.133C17.6342 10.2597 18.0158 10.557 18.1779 10.9086L18.1921 10.9408L18.2716 10.9347C18.7585 10.9009 19.1076 10.9074 19.4938 11.2567C19.7901 11.5246 19.885 11.8118 19.9072 12.2001L20.5054 12.1928C20.6475 12.1917 20.8351 12.1681 20.9533 12.2632C21.0182 12.3154 21.055 12.4057 21.0523 12.4891C21.0487 12.6001 21.0097 12.6465 20.9413 12.7242C20.7883 12.7767 20.6334 12.7626 20.4736 12.763L19.7341 12.7627L17.6655 12.766L14.467 12.7701L13.6515 12.7717C13.5681 12.7717 13.3936 12.7879 13.3185 12.7575C13.2959 12.7484 13.2431 12.7133 13.2244 12.6936C13.1695 12.6358 13.1529 12.5743 13.1517 12.496C13.1498 12.3878 13.1985 12.325 13.2679 12.2477C13.5555 12.1795 13.8996 12.2157 14.1953 12.2164C14.2301 11.9394 14.2866 11.6974 14.4813 11.4832C14.7197 11.2208 15.0026 11.1449 15.3452 11.1323C15.4509 10.9605 15.485 10.7875 15.6198 10.6235C15.9015 10.2807 16.2575 10.1153 16.6937 10.0653Z" fill="black"/>
<path d="M16.6397 10.5856C16.8974 10.5741 17.1427 10.5971 17.3677 10.7359C17.6349 10.9007 17.7571 11.2028 17.8204 11.4961C17.8323 11.5514 17.8499 11.555 17.8902 11.5925C18.079 11.5839 18.2354 11.5004 18.4093 11.4381C18.5885 11.3739 18.8057 11.4243 18.9709 11.508C19.2596 11.6542 19.3461 11.9156 19.4394 12.2021C19.2444 12.2234 19.0373 12.2096 18.8409 12.21L17.7624 12.2111L15.4467 12.2156C15.2959 12.2152 14.8659 12.2559 14.7536 12.185C14.7512 12.0667 14.768 11.9793 14.8461 11.8859C15.0844 11.6005 15.4156 11.6181 15.7527 11.5975C15.8207 11.4048 15.8647 11.1816 15.9772 11.0097C16.1422 10.7574 16.3556 10.65 16.6397 10.5856Z" fill="white"/>
<path d="M35.5153 10.0617C35.7764 10.0358 36.0421 10.0394 36.2921 10.126C36.6801 10.2606 37.0262 10.519 37.2072 10.8948C37.2314 10.9451 37.3376 10.9109 37.3913 10.9047C37.7779 10.8605 38.0829 10.9031 38.403 11.1413C38.7786 11.4207 38.9195 11.7708 38.9886 12.2183C39.2494 12.2158 39.6748 12.1519 39.899 12.2901C39.9407 12.345 39.9706 12.3867 39.9754 12.4591C39.9815 12.5514 39.9508 12.6185 39.8888 12.6823C39.8556 12.7165 39.8321 12.7315 39.7834 12.7389C39.5413 12.7756 39.2491 12.7503 39.0024 12.753L37.0081 12.7566L34.0987 12.7613L33.1035 12.7644C32.9224 12.7646 32.7153 12.7863 32.5424 12.73C32.4779 12.6687 32.4209 12.6274 32.413 12.5306C32.4051 12.4342 32.4323 12.3504 32.4898 12.2753C32.6773 12.1681 32.9519 12.2013 33.1645 12.1999C33.2025 11.9284 33.2582 11.6938 33.4337 11.4734C33.6024 11.2616 33.861 11.1037 34.1312 11.072L34.1543 11.0697L34.3442 10.7566C34.6275 10.3498 35.0388 10.1471 35.5153 10.0617Z" fill="black"/>
<path d="M35.6666 10.5617C35.8628 10.5476 36.0725 10.5817 36.253 10.6586C36.6575 10.8308 36.7129 11.062 36.8785 11.4244C36.9084 11.4899 36.9576 11.5439 37.0299 11.5627C37.1726 11.5997 37.3228 11.4846 37.45 11.4345C37.6292 11.3639 37.8195 11.4194 37.986 11.4993C38.2724 11.6368 38.3813 11.9202 38.4833 12.199L36.6572 12.1979L33.6735 12.1945C33.7 12.0899 33.7433 11.9778 33.8022 11.8872C33.901 11.7352 34.0791 11.6472 34.2534 11.6179L34.3494 11.6019C34.6731 11.5309 34.6571 11.2532 34.8284 11.023C35.0404 10.7383 35.327 10.6126 35.6666 10.5617Z" fill="white"/>
<path d="M26.0876 4.78556C26.6425 4.74751 27.2104 4.98014 27.6295 5.33405C28.0981 5.72979 28.3819 6.31827 28.4318 6.92622C28.4763 7.46847 28.2526 8.12619 27.8978 8.53548C27.4662 9.03331 26.9073 9.27617 26.2563 9.31931C25.7088 9.36804 25.1162 9.15311 24.6982 8.80146C24.2477 8.42254 23.9522 7.82874 23.9073 7.24192C23.8616 6.64675 24.0317 6.03448 24.4275 5.57653C24.8786 5.05458 25.4127 4.83755 26.0876 4.78556Z" fill="black"/>
<path d="M25.9441 5.33423C26.3456 5.29086 26.7502 5.37195 27.0872 5.59766C27.4793 5.86021 27.7553 6.25373 27.842 6.71893C27.9288 7.18474 27.8343 7.68384 27.5572 8.0715C27.2908 8.44444 26.8813 8.68039 26.4335 8.75627C26.0223 8.8243 25.5562 8.72652 25.2092 8.49428C24.8432 8.24926 24.5419 7.82101 24.4681 7.38396C24.3869 6.90311 24.4818 6.4446 24.7664 6.044C25.058 5.63339 25.4515 5.41553 25.9441 5.33423Z" fill="white"/>
<path d="M9.26762 44.842C8.89693 44.842 8.54842 44.7689 8.22211 44.6228C7.8958 44.474 7.60864 44.269 7.36064 44.008C7.11526 43.7469 6.92208 43.4454 6.78111 43.1034C6.64275 42.7589 6.57358 42.3908 6.57358 41.9992C6.57358 41.605 6.64275 41.2369 6.78111 40.895C6.92208 40.5504 7.11526 40.2489 7.36064 39.9904C7.60864 39.7294 7.8958 39.5257 8.22211 39.3796C8.54842 39.2308 8.89693 39.1564 9.26762 39.1564C9.7114 39.1564 10.1199 39.2595 10.4933 39.4657C10.8666 39.6693 11.1759 39.9421 11.4213 40.2841L10.3719 40.848C10.2361 40.6913 10.073 40.566 9.88239 40.4721C9.69183 40.3781 9.4869 40.3311 9.26762 40.3311C9.05878 40.3311 8.86168 40.3742 8.67634 40.4603C8.4936 40.5465 8.33175 40.6665 8.19078 40.8206C8.05243 40.972 7.94409 41.1482 7.86578 41.3492C7.78746 41.5502 7.7483 41.7669 7.7483 41.9992C7.7483 42.2289 7.78746 42.4443 7.86578 42.6453C7.94409 42.8463 8.05243 43.0238 8.19078 43.1778C8.33175 43.3293 8.4936 43.4493 8.67634 43.5381C8.86168 43.6242 9.05878 43.6673 9.26762 43.6673C9.4869 43.6673 9.69183 43.6203 9.88239 43.5263C10.073 43.4298 10.2361 43.3018 10.3719 43.1426L11.4213 43.7143C11.1759 44.0537 10.8666 44.3265 10.4933 44.5327C10.1199 44.7389 9.7114 44.842 9.26762 44.842ZM13.8016 39.2582H15.1252L17.1144 44.7402H15.8692L15.5559 43.8788H13.3709L13.0576 44.7402H11.8124L13.8016 39.2582ZM13.8016 42.704H15.1252L14.4595 40.8871L13.8016 42.704ZM17.5827 44.7402L18.6478 39.2582H19.6502L20.8797 42.4926L22.1093 39.2582H23.1117L24.1768 44.7402H22.9786L22.4069 41.7799L21.287 44.7402H20.4725L19.3526 41.7799L18.7809 44.7402H17.5827ZM24.9553 44.7402V39.2582H27.0228C27.323 39.2582 27.5945 39.3352 27.8373 39.4892C28.0827 39.6406 28.2772 39.8442 28.4208 40.1001C28.5643 40.3533 28.6361 40.6313 28.6361 40.9341C28.6361 41.2422 28.5617 41.5228 28.4129 41.776C28.2667 42.0292 28.071 42.2315 27.8256 42.3829C27.5802 42.5344 27.3126 42.6101 27.0228 42.6101H26.13V44.7402H24.9553ZM26.13 41.4353H26.8897C26.9941 41.4353 27.0894 41.4092 27.1755 41.357C27.2617 41.3022 27.3309 41.2304 27.3831 41.1417C27.4353 41.0529 27.4614 40.955 27.4614 40.848C27.4614 40.7409 27.4353 40.643 27.3831 40.5543C27.3309 40.4655 27.2617 40.395 27.1755 40.3428C27.0894 40.288 26.9941 40.2606 26.8897 40.2606H26.13V41.4353ZM31.4266 44.842C31.1186 44.842 30.8236 44.7937 30.5416 44.6972C30.2597 44.598 30.013 44.457 29.8016 44.2743C29.5901 44.0889 29.4374 43.8683 29.3434 43.6125L30.4477 43.2053C30.4738 43.281 30.5312 43.3541 30.6199 43.4245C30.7113 43.495 30.8262 43.5538 30.9645 43.6007C31.1029 43.6451 31.2569 43.6673 31.4266 43.6673C31.5832 43.6673 31.7307 43.6451 31.8691 43.6007C32.0074 43.5538 32.1197 43.4898 32.2058 43.4089C32.292 43.328 32.335 43.234 32.335 43.1269C32.335 43.0173 32.2894 42.9272 32.198 42.8568C32.1092 42.7837 31.9944 42.7262 31.8534 42.6845C31.7151 42.6401 31.5728 42.6075 31.4266 42.5866C31.0298 42.5291 30.6735 42.4352 30.3576 42.3046C30.0443 42.1715 29.7963 41.9888 29.6136 41.7564C29.4335 41.5241 29.3434 41.2291 29.3434 40.8715C29.3434 40.5295 29.44 40.2306 29.6332 39.9748C29.8264 39.7163 30.0809 39.5153 30.3967 39.3717C30.7152 39.2282 31.0585 39.1564 31.4266 39.1564C31.7346 39.1564 32.0296 39.206 32.3116 39.3052C32.5961 39.4017 32.8441 39.5427 33.0555 39.7281C33.267 39.9134 33.4184 40.1353 33.5098 40.3937L32.4055 40.7931C32.3794 40.7174 32.3207 40.6457 32.2293 40.5778C32.1406 40.5073 32.027 40.4499 31.8887 40.4055C31.7503 40.3611 31.5963 40.3389 31.4266 40.3389C31.2752 40.3363 31.1303 40.3585 30.9919 40.4055C30.8536 40.4525 30.74 40.5164 30.6513 40.5974C30.5625 40.6783 30.5181 40.7697 30.5181 40.8715C30.5181 41.0124 30.5599 41.1182 30.6434 41.1886C30.727 41.2565 30.8366 41.3048 30.9724 41.3335C31.1107 41.3622 31.2621 41.3883 31.4266 41.4118C31.8025 41.4667 32.1484 41.5646 32.4643 41.7055C32.7801 41.8465 33.0334 42.0344 33.2239 42.2694C33.4145 42.5043 33.5098 42.7902 33.5098 43.1269C33.5098 43.4689 33.4132 43.7691 33.22 44.0276C33.0294 44.2834 32.7762 44.4831 32.4604 44.6267C32.1445 44.7703 31.7999 44.842 31.4266 44.842ZM34.4874 44.7402V39.2582H35.6622V44.7402H34.4874ZM36.7179 44.7402V39.2582H38.5348C38.9133 39.2582 39.267 39.33 39.596 39.4735C39.9275 39.6145 40.2186 39.8116 40.4692 40.0648C40.7224 40.3154 40.9195 40.6065 41.0605 40.938C41.204 41.267 41.2758 41.6207 41.2758 41.9992C41.2758 42.3777 41.204 42.7328 41.0605 43.0643C40.9195 43.3932 40.7224 43.6843 40.4692 43.9375C40.2186 44.1881 39.9275 44.3852 39.596 44.5288C39.267 44.6698 38.9133 44.7402 38.5348 44.7402H36.7179ZM37.8926 43.5655H38.5348C38.7462 43.5655 38.9459 43.525 39.1339 43.4441C39.3219 43.3632 39.4889 43.2509 39.6351 43.1074C39.7813 42.9638 39.8949 42.798 39.9758 42.6101C40.0593 42.4195 40.1011 42.2159 40.1011 41.9992C40.1011 41.7825 40.0593 41.5802 39.9758 41.3923C39.8949 41.2043 39.7813 41.0385 39.6351 40.895C39.4915 40.7488 39.3258 40.6352 39.1378 40.5543C38.9499 40.4734 38.7489 40.4329 38.5348 40.4329H37.8926V43.5655ZM41.865 44.7402V39.2582H45.3578V40.4329H43.0397V41.2161H44.8253V42.3908H43.0397V43.5655H45.3578V44.7402H41.865Z" fill="black"/>
</g>
<defs>
<clipPath id="clip0_529_1217">
<rect width="51.864" height="45.6153" fill="white"/>
</clipPath>
</defs>
</svg>
