<svg width="29" height="29" viewBox="0 0 29 29" fill="none" xmlns="http://www.w3.org/2000/svg">
<path fill-rule="evenodd" clip-rule="evenodd" d="M17.21 16.3014L16.93 16.0314C17.91 14.8914 18.5 13.4114 18.5 11.8014C18.5 8.21139 15.59 5.30139 12 5.30139C8.41 5.30139 5.5 8.21139 5.5 11.8014C5.5 15.3914 8.41 18.3014 12 18.3014C13.61 18.3014 15.09 17.7114 16.23 16.7314L16.5 17.0114V17.8014L20.7929 22.0857C21.1835 22.4756 21.8162 22.4752 22.2064 22.085L22.2836 22.0078C22.6738 21.6175 22.6742 20.9849 22.2843 20.5943L18 16.3014H17.21ZM7.5 11.8014C7.5 9.31139 9.51 7.30139 12 7.30139C14.49 7.30139 16.5 9.31139 16.5 11.8014C16.5 14.2914 14.49 16.3014 12 16.3014C9.51 16.3014 7.5 14.2914 7.5 11.8014Z" fill="white"/>
<mask id="mask0_529_1126" style="mask-type:luminance" maskUnits="userSpaceOnUse" x="5" y="5" width="18" height="18">
<path fill-rule="evenodd" clip-rule="evenodd" d="M17.21 16.3014L16.93 16.0314C17.91 14.8914 18.5 13.4114 18.5 11.8014C18.5 8.21139 15.59 5.30139 12 5.30139C8.41 5.30139 5.5 8.21139 5.5 11.8014C5.5 15.3914 8.41 18.3014 12 18.3014C13.61 18.3014 15.09 17.7114 16.23 16.7314L16.5 17.0114V17.8014L20.7929 22.0857C21.1835 22.4756 21.8162 22.4752 22.2064 22.085L22.2836 22.0078C22.6738 21.6175 22.6742 20.9849 22.2843 20.5943L18 16.3014H17.21ZM7.5 11.8014C7.5 9.31139 9.51 7.30139 12 7.30139C14.49 7.30139 16.5 9.31139 16.5 11.8014C16.5 14.2914 14.49 16.3014 12 16.3014C9.51 16.3014 7.5 14.2914 7.5 11.8014Z" fill="white"/>
</mask>
<g mask="url(#mask0_529_1126)">
<rect x="2.5" y="2.30139" width="24" height="24" fill="white"/>
</g>
</svg>
