<svg width="22" height="22" viewBox="0 0 22 22" fill="none" xmlns="http://www.w3.org/2000/svg">
<path fill-rule="evenodd" clip-rule="evenodd" d="M7.97305 5.60267L8.08104 7.05769C8.11458 7.50972 7.79273 7.91067 7.34414 7.97567L6.86851 8.04459C6.3968 8.11295 5.95899 7.78596 5.89063 7.31425C5.87812 7.22787 5.87878 7.14008 5.89259 7.0539L6.12761 5.58766C6.18948 5.20165 6.50309 4.90545 6.89199 4.86569L7.07158 4.84733C7.52227 4.80126 7.92497 5.12927 7.97105 5.57996C7.97182 5.58752 7.97249 5.59509 7.97305 5.60267ZM8.93504 9.14299L10.5509 14.2489C10.6079 14.4289 10.612 14.6129 10.572 14.7843L13.7633 14.0472C14.1916 13.9484 14.6347 14.137 14.8605 14.5141L15.6918 15.9026C16.0758 16.544 15.8671 17.3752 15.2257 17.7592C15.0203 17.8822 14.7858 17.9485 14.5463 17.9513L13.9203 17.9586L8.27325 18.0178C7.53648 18.0256 6.93295 17.4346 6.92522 16.6978L6.92519 15.641C6.42233 15.5951 6.02139 15.1799 6.00581 14.6624C6.00552 14.6527 6.00537 14.643 6.00535 14.6333L5.99861 9.72128C5.99799 9.2675 6.29912 8.86863 6.73571 8.74492L7.69268 8.47378C8.21959 8.32448 8.76979 8.62085 8.93504 9.14299Z" fill="black"/>
</svg>
